#N canvas 2 95 625 420 10;
#X obj 37 37 notein;
#X obj 39 125 noteout;
#X obj 77 77 mod 16;
#X obj 187 80 mod 16;
#X obj 303 76 mod 16;
#X obj 263 36 bendin;
#X obj 265 124 bendout;
#X obj 423 83 mod 16;
#X obj 367 42 touchin;
#X obj 369 131 touchout;
#X obj 559 54 midirealtimein;
#X obj 563 132 midiout;
#X obj 37 76 + 8;
#X obj 141 41 ctlin 1;
#X obj 143 129 ctlout 1;
#X obj 255 87 - 8192;
#X connect 0 0 12 0;
#X connect 0 1 1 1;
#X connect 0 2 2 0;
#X connect 2 0 1 2;
#X connect 3 0 14 2;
#X connect 4 0 6 1;
#X connect 5 0 15 0;
#X connect 5 1 4 0;
#X connect 7 0 9 1;
#X connect 8 0 9 0;
#X connect 8 1 7 0;
#X connect 10 0 11 0;
#X connect 12 0 1 0;
#X connect 13 0 14 0;
#X connect 13 1 3 0;
#X connect 15 0 6 0;
